# xmcd
#
# Track frame offsets: 
#        150
#        14101
#        28010
#        42870
#        59375
#        75738
#        91747
#        104102
#        118690
#        133719
#        148311
#        159983
#        173392
#        187963
#        203186
#        217675
#        231216
#        244856
#
# Disc length: 3446 seconds
#
# Revision: 2
# Processed by: cddbd v1.5.2PL0 Copyright (c) Steve Scherf et al.
# Submitted via: ExactAudioCopyFreeDBPlugin 1.0
#
DISCID=f60d7412
DTITLE=Memphis Minnie - Me and My Chauffeur Blues
DYEAR=2000
DGENRE=Blues
TTITLE0=Bumble Bee
TTITLE1=Frankie Jean (That Trottin' Fool)
TTITLE2=Keep On Sailing
TTITLE3=Memphis Minnie Jitis Blues
TTITLE4=Biting Bug Blues
TTITLE5=Chickasaw Train Blues
TTITLE6=Down By The Riverside
TTITLE7=Good Morning
TTITLE8=Hot Stuff
TTITLE9=I Called You This Morning
TTITLE10=I Don't Want That Junk Outta You
TTITLE11=I Hate To See The Sun Go Down
TTITLE12=Ice Man (Come on Up)
TTITLE13=It's Hard To Be Mistreated
TTITLE14=Man, You Won't Give Me No Money
TTITLE15=Me and My Chauffeur Blues
TTITLE16=Moonshine
TTITLE17=She Put Me Outdoors
EXTD=
EXTT0=
EXTT1=
EXTT2=
EXTT3=
EXTT4=
EXTT5=
EXTT6=
EXTT7=
EXTT8=
EXTT9=
EXTT10=
EXTT11=
EXTT12=
EXTT13=
EXTT14=
EXTT15=
EXTT16=
EXTT17=
PLAYORDER=
